:SAMPLES-PER-SECOND 30
:FULLY-SPECIFIED
:DEGREES
1002
root  32.4514 38.7249 49.2968 -140.962 4.83057 178.006
RightUpLeg  -59.8856 -14.4049 9.43518
RightLeg  21.8839 -3.12438 -1.5992
RightFoot  -0.793131 0.205778 -2.28586
RightToes  2.91037e-010 0 -3.6325e-017
Spine  72.0102 -3.37823 3.97663
Spine1  16.48 1.10003 -3.114
HEad  -36.5716 -2.83039 -0.0741587
LeftShoulder1  5.2215 -26.8013 -9.75882
LeftArm  -82.1106 -53.4541 37.9573
LeftForeArm  -12.3569 -9.31919 2.59339
LeftHand  -0.244104 0.0205437 5.32207
RightShoulder  0.309444 13.6959 -7.54817
RightArm  -74.9205 55.0441 -20.9708
RightForeArm  -28.0875 12.9148 2.86177
RightHand  -0.760653 8.22858 -6.84019
LeftUpLeg  -58.6609 17.3597 -22.8939
LeftLeg  16.2343 7.48291 0.0812838
LeftFoot  -1.00723 -0.797992 8.87268
LeftToes  -1.10052e-010 1.3781e-010 -2.1811e-011
1003
root  32.5985 38.6678 49.3383 -140.7 4.46359 177.598
RightUpLeg  -60.8132 -14.5245 9.48156
RightLeg  22.9812 -3.69743 -1.9389
RightFoot  -1.18112 0.199912 -2.3363
RightToes  2.91037e-010 0 -3.6325e-017
Spine  72.0837 -3.49061 3.9807
Spine1  16.4028 1.00145 -3.3056
HEad  -36.5337 -2.67098 -0.0378381
LeftShoulder1  4.79045 -26.397 -8.43094
LeftArm  -83.1803 -53.2332 37.7985
LeftForeArm  -12.633 -10.0314 2.88889
LeftHand  -0.244104 0.0205437 5.32207
RightShoulder  0.269494 13.5255 -7.79618
RightArm  -76.1135 55.1021 -21.6359
RightForeArm  -29.0321 12.9174 2.71003
RightHand  -0.962357 8.17743 -8.57148
LeftUpLeg  -59.2537 17.3557 -23.7744
LeftLeg  16.3991 6.51701 0.161757
LeftFoot  -0.804483 -0.826199 8.99266
LeftToes  -1.10052e-010 1.3781e-010 -2.1811e-011
1004
root  32.7182 38.5934 49.3774 -140.124 3.80698 177.402
RightUpLeg  -61.9912 -14.6426 9.82785
RightLeg  24.0049 -4.08649 -2.21107
RightFoot  -1.49063 0.176767 -2.16751
RightToes  2.91037e-010 0 -3.6325e-017
Spine  71.5539 -3.53996 4.402
Spine1  16.4574 1.14045 -3.10423
HEad  -36.6708 -2.57477 -0.399754
LeftShoulder1  4.56896 -26.3222 -7.65175
LeftArm  -83.601 -53.5346 38.2297
LeftForeArm  -13.0304 -9.60343 2.96069
LeftHand  -0.244104 0.0205437 5.32207
RightShoulder  0.19276 13.7201 -8.32752
RightArm  -76.9887 54.5481 -21.4444
RightForeArm  -30.8616 13.4826 2.67698
RightHand  -1.25114 8.35438 -10.8861
LeftUpLeg  -60.353 17.3344 -24.8507
LeftLeg  16.7485 5.1148 0.327304
LeftFoot  -0.705235 -0.840654 9.05639
LeftToes  -1.10052e-010 1.3781e-010 -2.1811e-011
1005
root  32.806 38.5261 49.4117 -139.78 2.99417 177.301
RightUpLeg  -62.8184 -14.8662 10.2018
RightLeg  24.8329 -4.41158 -2.45032
RightFoot  -1.69696 0.161585 -2.0507
RightToes  2.91037e-010 0 -3.6325e-017
Spine  71.1054 -3.68396 4.93877
Spine1  16.3922 1.2703 -2.84404
HEad  -37.0702 -2.27914 -0.789059
LeftShoulder1  4.55171 -26.449 -7.51324
LeftArm  -83.5736 -54.0445 39.253
LeftForeArm  -13.4314 -8.49012 2.78266
LeftHand  -0.244104 0.0205437 5.32207
RightShoulder  0.155018 13.8066 -8.58428
RightArm  -78.5707 54.4998 -21.3279
RightForeArm  -32.0001 13.97 2.54155
RightHand  -1.51946 8.57955 -12.9318
LeftUpLeg  -61.3623 17.3126 -25.8794
LeftLeg  17.357 3.58634 0.652274
LeftFoot  -0.613292 -0.852274 9.09561
LeftToes  -1.10052e-010 1.3781e-010 -2.1811e-011
1006
root  32.8646 38.4808 49.4356 -139.915 2.32742 177.108
RightUpLeg  -63.0838 -15.2584 10.3206
RightLeg  25.5766 -4.72548 -2.68687
RightFoot  -2.03222 0.145182 -1.95118
RightToes  2.91037e-010 0 -3.6325e-017
Spine  71.0279 -3.83731 5.19209
Spine1  16.2678 1.22472 -2.6361
HEad  -37.5867 -1.91939 -0.857387
LeftShoulder1  4.56717 -26.6719 -7.44204
LeftArm  -83.8242 -54.4735 39.943
LeftForeArm  -13.5997 -7.35661 2.80148
LeftHand  -0.244104 0.0205437 5.32207
RightShoulder  0.206976 13.3324 -8.19886
RightArm  -80.8389 55.6145 -22.1824
RightForeArm  -31.6883 13.6472 2.13515
RightHand  -1.64757 8.65738 -13.9035
LeftUpLeg  -61.5971 17.063 -26.2082
LeftLeg  17.8905 2.90968 0.961798
LeftFoot  -0.50737 -0.870891 9.19478
LeftToes  -1.10052e-010 1.3781e-010 -2.1811e-011
1007
root  32.9002 38.4482 49.451 -140.157 1.90082 176.837
RightUpLeg  -63.1743 -15.5904 10.1432
RightLeg  26.2689 -4.90216 -2.85541
RightFoot  -2.43469 0.126719 -1.83841
RightToes  2.91037e-010 0 -3.6325e-017
Spine  71.1183 -3.91334 5.11827
Spine1  15.9496 1.06418 -2.55171
HEad  -37.9706 -1.59146 -0.596432
LeftShoulder1  4.56127 -26.7662 -7.36621
LeftArm  -84.3816 -54.8834 40.0286
LeftForeArm  -13.2043 -6.45495 3.10532
LeftHand  -0.244104 0.0205437 5.32207
RightShoulder  0.293675 12.8855 -7.55864
RightArm  -81.8715 56.8356 -23.2076
RightForeArm  -31.0337 12.9044 1.83977
RightHand  -1.67662 8.69107 -14.1053
LeftUpLeg  -61.3954 16.6692 -26.103
LeftLeg  18.1497 2.91674 1.12465
LeftFoot  -0.420295 -0.895363 9.37012
LeftToes  -1.10052e-010 1.3781e-010 -2.1811e-011
1008
root  32.9155 38.4192 49.4625 -140.138 1.5907 176.619
RightUpLeg  -63.4301 -15.689 9.87644
RightLeg  26.778 -5.01186 -2.97273
RightFoot  -2.62007 0.11334 -1.7189
RightToes  2.91037e-010 0 -3.6325e-017
Spine  71.0836 -3.90984 5.0054
Spine1  15.4339 0.987444 -2.56031
HEad  -38.2673 -1.32258 -0.310022
LeftShoulder1  4.65721 -26.613 -7.80859
LeftArm  -84.8959 -55.4899 40.5776
LeftForeArm  -12.011 -5.55047 3.18605
LeftHand  -0.244104 0.0205437 5.32207
RightShoulder  0.330687 13.1032 -7.32755
RightArm  -80.3631 56.8671 -23.0541
RightForeArm  -31.1205 12.6386 2.07078
RightHand  -1.70058 8.72376 -14.268
LeftUpLeg  -61.3904 16.4187 -26.1781
LeftLeg  18.2164 2.80978 1.06172
LeftFoot  -0.35683 -0.919091 9.55691
LeftToes  -1.10052e-010 1.3781e-010 -2.1811e-011
1009
root  32.912 38.4008 49.4685 -139.992 1.35173 176.503
RightUpLeg  -63.6683 -15.6065 9.6129
RightLeg  27.0361 -5.29815 -3.16006
RightFoot  -2.5976 0.0922908 -1.43835
RightToes  2.91037e-010 0 -3.6325e-017
Spine  70.9857 -3.88248 5.02914
Spine1  14.9272 1.09689 -2.69214
HEad  -38.5577 -1.18748 -0.173525
LeftShoulder1  4.85915 -26.3004 -8.7447
LeftArm  -85.3012 -56.301 42.3637
LeftForeArm  -10.0746 -4.35145 2.78156
LeftHand  -0.244104 0.0205437 5.32207
RightShoulder  0.326539 13.7914 -7.44743
RightArm  -77.7498 55.8865 -22.0528
RightForeArm  -31.2127 12.899 2.5044
RightHand  -1.70988 8.5657 -14.4982
LeftUpLeg  -61.594 16.556 -26.6259
LeftLeg  18.2033 2.27105 0.776934
LeftFoot  -0.308782 -0.938512 9.71181
LeftToes  -1.10052e-010 1.3781e-010 -2.1811e-011
1010
root  32.8949 38.3994 49.467 -140.025 1.27507 176.467
RightUpLeg  -63.5683 -15.366 9.21005
RightLeg  27.1345 -5.77983 -3.43778
RightFoot  -2.58175 0.0572689 -0.968759
RightToes  2.91037e-010 0 -3.6325e-017
Spine  71.0238 -3.85542 5.09158
Spine1  14.6263 1.33826 -3.07739
HEad  -38.7067 -1.24449 -0.0336119
LeftShoulder1  4.91626 -25.9969 -9.14908
LeftArm  -85.7668 -57.0145 44.3589
LeftForeArm  -7.7071 -3.03456 2.34648
LeftHand  -0.244104 0.0205437 5.32207
RightShoulder  0.364999 14.2802 -7.2599
RightArm  -76.54 55.1876 -21.7012
RightForeArm  -30.1415 12.8428 2.55144
RightHand  -1.69117 8.28883 -14.6217
LeftUpLeg  -61.7521 17.1031 -27.3232
LeftLeg  18.2273 1.47147 0.450908
LeftFoot  -0.279538 -0.953339 9.83617
LeftToes  -1.10052e-010 1.3781e-010 -2.1811e-011
1011
root  32.8666 38.4072 49.4682 -140.264 1.35559 176.518
RightUpLeg  -63.1814 -14.9004 8.60827
RightLeg  27.1895 -6.31687 -3.7416
RightFoot  -2.56123 0.0360502 -0.685297
RightToes  2.91037e-010 0 -3.6325e-017
Spine  71.1616 -3.86097 5.0605
Spine1  14.5901 1.58333 -3.78657
HEad  -38.671 -1.33631 0.328758
LeftShoulder1  4.58558 -25.662 -8.10665
LeftArm  -85.943 -57.3835 44.8979
LeftForeArm  -5.70973 -1.98099 2.34605
LeftHand  -0.244104 0.0205437 5.32207
RightShoulder  0.465484 14.1969 -6.59668
RightArm  -77.3398 55.6144 -22.42
RightForeArm  -28.7512 12.0261 2.13551
RightHand  -1.70147 8.19399 -14.8051
LeftUpLeg  -61.9401 17.8125 -28.0556
LeftLeg  18.5242 0.63352 0.302792
LeftFoot  -0.236705 -0.961363 9.87752
LeftToes  -1.10052e-010 1.3781e-010 -2.1811e-011
1012
root  32.8204 38.407 49.4877 -140.531 1.43689 176.658
RightUpLeg  -62.821 -14.2548 7.95074
RightLeg  27.318 -6.92879 -4.0997
RightFoot  -2.42801 0.0446756 -0.857254
RightToes  2.91037e-010 0 -3.6325e-017
Spine  71.1045 -3.88662 5.01696
Spine1  14.9765 1.78516 -4.51619
HEad  -38.7976 -1.39402 0.853961
LeftShoulder1  4.0033 -25.2828 -6.09566
LeftArm  -85.5163 -57.4787 44.1885
LeftForeArm  -4.67973 -1.228 2.55273
LeftHand  -0.244104 0.0205437 5.32207
RightShoulder  0.525375 13.6121 -6.09423
RightArm  -79.02 56.7148 -23.5736
RightForeArm  -28.7074 10.7722 1.60608
RightHand  -1.75392 8.2923 -15.141
LeftUpLeg  -62.2539 18.292 -28.4722
LeftLeg  19.159 0.100819 0.338066
LeftFoot  -0.194725 -0.956834 9.79147
LeftToes  -1.10052e-010 1.3781e-010 -2.1811e-011
1013
root  32.7503 38.3866 49.529 -140.756 1.43153 176.798
RightUpLeg  -62.6419 -13.613 7.29706
RightLeg  27.6365 -7.6567 -4.55887
RightFoot  -2.28766 0.0590501 -1.10793
RightToes  2.91037e-010 0 -3.6325e-017
Spine  70.7491 -3.95798 5.16255
Spine1  15.702 1.99706 -5.08613
HEad  -39.2782 -1.65589 1.46361
LeftShoulder1  3.58028 -25.2638 -4.4617
LeftArm  -84.8717 -57.5577 44.0301
LeftForeArm  -3.85072 -0.435193 2.46947
LeftHand  -0.244104 0.0205437 5.32207
RightShoulder  0.545647 12.989 -5.82055
RightArm  -80.2903 57.4347 -24.8217
RightForeArm  -29.3206 9.41936 1.21256
RightHand  -1.78484 8.35666 -15.3302
LeftUpLeg  -62.4474 18.3974 -28.4417
LeftLeg  19.7682 0.119207 0.385386
LeftFoot  -0.26698 -0.942541 9.71373
LeftToes  -1.10052e-010 1.3781e-010 -2.1811e-011
